<?xml version="1.0" encoding="UTF-8"?>
<svg id="Layer_2" data-name="Layer 2" xmlns="http://www.w3.org/2000/svg" viewBox="0 0 16 16">
  <defs>
    <style>
      .cls-1 {
        fill: #fff;
      }

      .cls-2 {
        fill: #95e538;
      }
    </style>
  </defs>
  <g id="Layer_1-2" data-name="Layer 1">
    <g>
      <path class="cls-1" d="M8.94,5.82h-1.88c-.18,0-.35.1-.45.26l-.94,1.66c-.09.16-.09.36,0,.53l.94,1.66c.09.16.26.26.45.26h1.88c.18,0,.35-.1.45-.26l.94-1.66c.09-.16.09-.36,0-.53l-.94-1.66c-.09-.16-.26-.26-.45-.26Z"/>
      <g>
        <g id="_Radial_Repeat_" data-name="&amp;lt;Radial Repeat&amp;gt;">
          <path class="cls-2" d="M11.5,8.93c.05-.08.16-.07.2,0l.31.57.8,1.48c.09.17.18.34.27.51.13.24.28.47.36.73.04.13.06.26.07.4.05.7-.19,1.39-.7,1.87-.3.29-.69.49-1.09.6-.04.01-.09.02-.13.03.16-.54.32-1.3.31-2.23,0-.82-.13-1.5-.27-2.01-.02.64-.09,1.18-.17,1.61-.12.7-.24,1.41-.58,2.03-.25.47-.61.87-1.03,1.19-.11.09-.23.17-.37.22-.15.05-.31.07-.46.04-.21-.03-.4-.12-.55-.27-.14-.14-.24-.33-.28-.52-.03-.12-.03-.25,0-.38.04-.19.15-.34.23-.51s.18-.35.27-.53c.19-.37.39-.73.59-1.1.16-.29.32-.58.49-.87.58-1.01,1.15-1.97,1.73-2.88Z"/>
        </g>
        <g id="_Radial_Repeat_-2" data-name="&amp;lt;Radial Repeat&amp;gt;">
          <path class="cls-2" d="M8.96,11.55c.09,0,.14.1.09.18l-.33.56-.86,1.44c-.1.17-.2.33-.3.5-.14.23-.26.49-.44.69-.09.1-.19.18-.3.26-.57.39-1.28.53-1.94.32-.4-.12-.76-.36-1.05-.66-.03-.03-.06-.06-.09-.1.53-.13,1.27-.37,2.05-.84.69-.41,1.21-.87,1.57-1.24-.55.3-1.05.51-1.45.66-.65.24-1.32.49-2.02.5-.52.01-1.04-.11-1.52-.31-.13-.06-.26-.12-.37-.21-.12-.1-.21-.24-.27-.39-.08-.2-.1-.42-.05-.62.05-.2.16-.37.3-.51.09-.08.2-.15.32-.19.18-.06.36-.04.55-.05s.39-.02.59-.02c.41-.01.82-.02,1.23-.03.33,0,.66,0,.98,0,1.15,0,2.26.03,3.32.08Z"/>
        </g>
        <g id="_Radial_Repeat_-3" data-name="&amp;lt;Radial Repeat&amp;gt;">
          <path class="cls-2" d="M5.45,10.62c.04.08-.02.17-.11.17h-.64c-.55-.03-1.1-.04-1.66-.05-.19,0-.38,0-.57-.01-.27,0-.54.01-.81-.05-.13-.03-.25-.08-.37-.14-.62-.3-1.09-.87-1.24-1.55-.09-.41-.08-.85.03-1.26.01-.04.02-.09.04-.13.38.41.95.93,1.74,1.39.7.41,1.35.63,1.84.77-.53-.34-.96-.67-1.28-.95-.53-.46-1.07-.92-1.44-1.53-.27-.46-.43-.97-.5-1.5-.02-.14-.03-.29,0-.43.03-.16.1-.3.19-.43.13-.17.31-.29.5-.35.19-.06.4-.05.59.01.12.04.23.1.32.18.14.13.22.3.32.46s.21.34.31.5c.22.35.43.71.64,1.07.17.29.33.57.5.86.57,1.01,1.1,2,1.59,2.97Z"/>
        </g>
        <g id="_Radial_Repeat_-4" data-name="&amp;lt;Radial Repeat&amp;gt;">
          <path class="cls-2" d="M4.5,7.07c-.05.08-.16.07-.2,0l-.31-.57-.8-1.48c-.09-.17-.18-.34-.27-.51-.13-.24-.28-.47-.36-.73-.04-.13-.06-.26-.07-.4-.05-.7.19-1.39.7-1.87.3-.29.69-.49,1.09-.6.04-.01.09-.02.13-.03-.16.54-.32,1.3-.31,2.23,0,.82.13,1.5.27,2.01.02-.64.09-1.18.17-1.61.12-.7.24-1.41.58-2.03.25-.47.61-.87,1.03-1.19.11-.09.23-.17.37-.22C6.65,0,6.82-.01,6.97.01c.21.03.4.12.55.27.14.14.24.33.28.52.03.12.03.25,0,.38-.04.19-.15.34-.23.51s-.18.35-.27.53c-.19.37-.39.73-.59,1.1-.16.29-.32.58-.49.87-.58,1.01-1.15,1.97-1.73,2.88Z"/>
        </g>
        <g id="_Radial_Repeat_-5" data-name="&amp;lt;Radial Repeat&amp;gt;">
          <path class="cls-2" d="M7.04,4.45c-.09,0-.14-.1-.09-.18l.33-.56.86-1.44c.1-.17.2-.33.3-.5.14-.23.26-.49.44-.69.09-.1.19-.18.3-.26.57-.39,1.28-.53,1.94-.32.4.12.76.36,1.05.66.03.03.06.06.09.1-.53.13-1.27.37-2.05.84-.69.41-1.21.87-1.57,1.24.55-.3,1.05-.51,1.45-.66.65-.24,1.32-.49,2.02-.5.52-.01,1.04.11,1.52.31.13.06.26.12.37.21.12.1.21.24.27.39.08.2.1.42.05.62-.05.2-.16.37-.3.51-.09.08-.2.15-.32.19-.18.06-.36.04-.55.05s-.39.02-.59.02c-.41.01-.82.02-1.23.03-.33,0-.66,0-.98,0-1.15,0-2.26-.03-3.32-.08Z"/>
        </g>
        <g id="_Radial_Repeat_-6" data-name="&amp;lt;Radial Repeat&amp;gt;">
          <path class="cls-2" d="M10.55,5.38c-.04-.08.02-.17.11-.17h.64c.55.03,1.1.04,1.66.05.19,0,.38,0,.57.01.27,0,.54-.01.81.05.13.03.25.08.37.14.62.3,1.09.87,1.24,1.55.09.41.08.85-.03,1.26-.01.04-.02.09-.04.13-.38-.41-.95-.93-1.74-1.39-.7-.41-1.35-.63-1.84-.77.53.34.96.67,1.28.95.53.46,1.07.92,1.44,1.53.27.46.43.97.5,1.5.02.14.03.29,0,.43-.03.16-.1.3-.19.43-.13.17-.31.29-.5.35-.19.06-.4.05-.59-.01-.12-.04-.23-.1-.32-.18-.14-.13-.22-.3-.32-.46s-.21-.34-.31-.5c-.22-.35-.43-.71-.64-1.07-.17-.29-.33-.57-.5-.86-.57-1.01-1.1-2-1.59-2.97Z"/>
        </g>
      </g>
    </g>
  </g>
</svg>